<svg width="286" height="82" viewBox="0 0 286 82" fill="none" xmlns="http://www.w3.org/2000/svg">
<rect width="154" height="53" rx="8" fill="url(#paint0_linear_73_10)"/>
<path d="M66.4002 23.0488H64.6475C64.5438 22.5446 64.3624 22.1017 64.1032 21.7201C63.8488 21.3384 63.5378 21.018 63.1703 20.7589C62.8075 20.495 62.4047 20.2971 61.9618 20.1652C61.5188 20.0333 61.0571 19.9673 60.5765 19.9673C59.7001 19.9673 58.9062 20.1887 58.1947 20.6317C57.4879 21.0746 56.9249 21.7271 56.5055 22.5894C56.0909 23.4516 55.8836 24.5094 55.8836 25.7627C55.8836 27.0161 56.0909 28.0739 56.5055 28.9361C56.9249 29.7984 57.4879 30.4509 58.1947 30.8938C58.9062 31.3368 59.7001 31.5582 60.5765 31.5582C61.0571 31.5582 61.5188 31.4922 61.9618 31.3603C62.4047 31.2284 62.8075 31.0328 63.1703 30.7737C63.5378 30.5098 63.8488 30.1871 64.1032 29.8054C64.3624 29.4191 64.5438 28.9762 64.6475 28.4767H66.4002C66.2683 29.2165 66.028 29.8785 65.6793 30.4627C65.3307 31.047 64.8972 31.5441 64.3789 31.954C63.8606 32.3592 63.2787 32.6678 62.6332 32.8799C61.9924 33.0919 61.3068 33.1979 60.5765 33.1979C59.342 33.1979 58.2442 32.8963 57.283 32.2932C56.3218 31.6901 55.5655 30.8326 55.0143 29.7206C54.463 28.6086 54.1874 27.2894 54.1874 25.7627C54.1874 24.2361 54.463 22.9169 55.0143 21.8049C55.5655 20.6929 56.3218 19.8354 57.283 19.2323C58.2442 18.6292 59.342 18.3276 60.5765 18.3276C61.3068 18.3276 61.9924 18.4336 62.6332 18.6456C63.2787 18.8577 63.8606 19.1687 64.3789 19.5786C64.8972 19.9838 65.3307 20.4785 65.6793 21.0628C66.028 21.6423 66.2683 22.3043 66.4002 23.0488ZM72.201 33.2544C71.5131 33.2544 70.8888 33.1249 70.3281 32.8657C69.7674 32.6019 69.3221 32.2226 68.9923 31.7278C68.6625 31.2284 68.4975 30.6253 68.4975 29.9185C68.4975 29.2966 68.62 28.7924 68.8651 28.406C69.1101 28.015 69.4375 27.7087 69.8475 27.4873C70.2574 27.2658 70.7097 27.1009 71.2044 26.9925C71.7039 26.8794 72.2057 26.7899 72.7098 26.7239C73.3695 26.6391 73.9043 26.5755 74.3142 26.5331C74.7288 26.486 75.0304 26.4083 75.2189 26.2999C75.412 26.1915 75.5086 26.003 75.5086 25.7345V25.6779C75.5086 24.9806 75.3178 24.4387 74.9361 24.0524C74.5592 23.666 73.9867 23.4728 73.2187 23.4728C72.4224 23.4728 71.7981 23.6472 71.3458 23.9958C70.8935 24.3445 70.5754 24.7167 70.3917 25.1125L68.8085 24.5471C69.0912 23.8875 69.4682 23.3739 69.9393 23.0064C70.4152 22.6341 70.9335 22.375 71.4942 22.2289C72.0596 22.0782 72.6156 22.0028 73.1622 22.0028C73.5108 22.0028 73.9113 22.0452 74.3637 22.13C74.8207 22.2101 75.2613 22.3774 75.6853 22.6318C76.1141 22.8862 76.4698 23.2702 76.7525 23.7838C77.0352 24.2974 77.1766 24.9853 77.1766 25.8476V33H75.5086V31.5299H75.4238C75.3107 31.7655 75.1223 32.0176 74.8584 32.2862C74.5945 32.5547 74.2435 32.7833 73.8053 32.9717C73.3671 33.1602 72.8324 33.2544 72.201 33.2544ZM72.4554 31.7561C73.1151 31.7561 73.671 31.6265 74.1234 31.3674C74.5804 31.1082 74.9244 30.7737 75.1552 30.3638C75.3908 29.9539 75.5086 29.5227 75.5086 29.0704V27.5438C75.438 27.6286 75.2825 27.7063 75.0422 27.777C74.8066 27.843 74.5333 27.9019 74.2223 27.9537C73.9161 28.0008 73.6169 28.0432 73.3247 28.0809C73.0373 28.1139 72.8041 28.1422 72.625 28.1657C72.1916 28.2223 71.7863 28.3142 71.4094 28.4414C71.0372 28.5639 70.7356 28.75 70.5047 28.9997C70.2786 29.2447 70.1655 29.5793 70.1655 30.0033C70.1655 30.5829 70.3799 31.0211 70.8087 31.3179C71.2421 31.61 71.7911 31.7561 72.4554 31.7561ZM81.8889 18.5255V33H80.221V18.5255H81.8889ZM86.6119 18.5255V33H84.9439V18.5255H86.6119ZM104.989 18.5255H106.742V28.1092C106.742 29.0987 106.509 29.9821 106.043 30.7596C105.581 31.5323 104.928 32.1425 104.085 32.5901C103.241 33.033 102.252 33.2544 101.116 33.2544C99.9809 33.2544 98.9914 33.033 98.148 32.5901C97.3046 32.1425 96.6497 31.5323 96.1832 30.7596C95.7215 29.9821 95.4906 29.0987 95.4906 28.1092V18.5255H97.2433V27.9678C97.2433 28.6746 97.3988 29.3036 97.7098 29.8549C98.0208 30.4015 98.4637 30.8326 99.0385 31.1483C99.6181 31.4593 100.311 31.6147 101.116 31.6147C101.922 31.6147 102.615 31.4593 103.194 31.1483C103.774 30.8326 104.217 30.4015 104.523 29.8549C104.834 29.3036 104.989 28.6746 104.989 27.9678V18.5255ZM117.706 24.5754L116.208 24.9994C116.113 24.7497 115.974 24.5071 115.791 24.2715C115.612 24.0312 115.367 23.8333 115.056 23.6778C114.745 23.5223 114.346 23.4446 113.861 23.4446C113.197 23.4446 112.643 23.5977 112.2 23.904C111.762 24.2055 111.543 24.5895 111.543 25.056C111.543 25.4706 111.694 25.7981 111.995 26.0384C112.297 26.2787 112.768 26.4789 113.409 26.6391L115.02 27.0349C115.991 27.2705 116.714 27.631 117.19 28.1163C117.666 28.5969 117.904 29.2165 117.904 29.9751C117.904 30.597 117.725 31.153 117.367 31.643C117.013 32.133 116.519 32.5194 115.882 32.8021C115.246 33.0848 114.507 33.2262 113.663 33.2262C112.556 33.2262 111.64 32.9859 110.914 32.5053C110.188 32.0247 109.729 31.3226 109.536 30.3991L111.119 30.0033C111.27 30.5876 111.555 31.0258 111.974 31.3179C112.398 31.61 112.952 31.7561 113.635 31.7561C114.412 31.7561 115.03 31.5912 115.487 31.2614C115.948 30.9268 116.179 30.5263 116.179 30.0599C116.179 29.6829 116.047 29.3672 115.783 29.1128C115.52 28.8537 115.114 28.6605 114.568 28.5333L112.759 28.1092C111.764 27.8736 111.034 27.5085 110.568 27.0137C110.106 26.5143 109.875 25.89 109.875 25.1408C109.875 24.5283 110.047 23.9864 110.391 23.5152C110.74 23.0441 111.213 22.6742 111.811 22.4056C112.415 22.1371 113.098 22.0028 113.861 22.0028C114.935 22.0028 115.779 22.2384 116.391 22.7095C117.009 23.1807 117.447 23.8027 117.706 24.5754Z" fill="white"/>
<path d="M26.8063 16.4681L27.9733 16.1171C28.6126 15.9243 29.3002 15.9707 29.9078 16.2477C30.5153 16.5246 31.0014 17.0131 31.2753 17.6221L32.1773 19.6281C32.4128 20.1519 32.4783 20.7363 32.3648 21.2992C32.2513 21.8622 31.9643 22.3755 31.5443 22.7671L30.0493 24.1601C30.0056 24.2008 29.9779 24.2558 29.9713 24.3151C29.9273 24.7121 30.1963 25.4851 30.8173 26.5601C31.2673 27.3411 31.6763 27.8901 32.0233 28.1971C32.2663 28.4121 32.3993 28.4581 32.4563 28.4421L34.4663 27.8271C35.0152 27.6592 35.6029 27.6673 36.147 27.8502C36.6911 28.0331 37.1643 28.3817 37.5003 28.8471L38.7803 30.6231C39.17 31.1631 39.3505 31.8261 39.2883 32.4891C39.2261 33.1521 38.9255 33.77 38.4423 34.2281L37.5553 35.0681C37.0851 35.5134 36.5075 35.8293 35.8789 35.9851C35.2503 36.1409 34.5921 36.1313 33.9683 35.9571C31.2143 35.1881 28.7453 32.8641 26.5333 29.0331C24.3193 25.1971 23.5413 21.8931 24.2593 19.1201C24.4205 18.4964 24.7396 17.9248 25.1859 17.4603C25.6321 16.9958 26.1896 16.6541 26.8063 16.4681ZM27.2403 17.9051C26.8702 18.0164 26.535 18.2212 26.267 18.4997C25.999 18.7782 25.8073 19.121 25.7103 19.4951C25.1083 21.8271 25.7973 24.7561 27.8333 28.2831C29.8673 31.8051 32.0563 33.8661 34.3733 34.5131C34.7476 34.6175 35.1425 34.6232 35.5196 34.5296C35.8968 34.436 36.2432 34.2464 36.5253 33.9791L37.4113 33.1391C37.6311 32.9309 37.7679 32.65 37.7962 32.3485C37.8245 32.0471 37.7425 31.7456 37.5653 31.5001L36.2853 29.7251C36.1325 29.5133 35.9173 29.3547 35.6698 29.2715C35.4223 29.1882 35.155 29.1846 34.9053 29.2611L32.8903 29.8781C31.7203 30.2261 30.6593 29.2851 29.5193 27.3101C28.7493 25.9801 28.3913 24.9501 28.4813 24.1491C28.5273 23.7331 28.7213 23.3491 29.0263 23.0631L30.5213 21.6701C30.7121 21.492 30.8424 21.2586 30.8939 21.0027C30.9454 20.7468 30.9154 20.4811 30.8083 20.2431L29.9073 18.2371C29.7828 17.9603 29.5618 17.7382 29.2856 17.6124C29.0094 17.4865 28.6969 17.4654 28.4063 17.5531L27.2403 17.9051Z" fill="white"/>
<defs>
<linearGradient id="paint0_linear_73_10" x1="77" y1="0" x2="77" y2="53" gradientUnits="userSpaceOnUse">
<stop stop-color="#4A4444"/>
<stop offset="1" stop-color="#181818"/>
</linearGradient>
</defs>
</svg>
