<svg xmlns="http://www.w3.org/2000/svg" xmlns:xlink="http://www.w3.org/1999/xlink" width="160" zoomAndPan="magnify" viewBox="0 0 120 48" height="64" preserveAspectRatio="xMidYMid meet" version="1.0"><defs><g/></defs><g fill="#ffffff" fill-opacity="1"><g transform="translate(9.743226, 19.270875)"><g><path d="M 11.0625 -10.421875 L 11.0625 0 L 8.34375 0 L 8.34375 -6.078125 L 6.484375 -6.078125 C 5.742188 -6.078125 5.1875 -6.039062 4.8125 -5.96875 C 4.445312 -5.894531 4.160156 -5.769531 3.953125 -5.59375 C 3.648438 -5.351562 3.5 -5.007812 3.5 -4.5625 C 3.5 -4.09375 3.707031 -3.609375 4.125 -3.109375 C 4.550781 -2.617188 5.171875 -2.070312 5.984375 -1.46875 L 4.21875 0.34375 C 3.570312 -0.1875 2.988281 -0.734375 2.46875 -1.296875 C 1.957031 -1.859375 1.546875 -2.445312 1.234375 -3.0625 C 0.921875 -3.675781 0.765625 -4.320312 0.765625 -5 C 0.765625 -5.488281 0.859375 -5.929688 1.046875 -6.328125 C 1.234375 -6.722656 1.472656 -7.046875 1.765625 -7.296875 C 2.171875 -7.648438 2.660156 -7.910156 3.234375 -8.078125 C 3.816406 -8.242188 4.640625 -8.328125 5.703125 -8.328125 L 8.34375 -8.328125 L 8.34375 -10.421875 L 0 -10.421875 L 0 -12.65625 L 12.984375 -12.65625 L 12.984375 -10.421875 Z M 11.0625 -10.421875 "/></g></g></g><g fill="#ffffff" fill-opacity="1"><g transform="translate(22.43656, 19.270875)"><g><path d="M -4.65625 -12.515625 C -4.90625 -12.984375 -5.078125 -13.410156 -5.171875 -13.796875 C -5.265625 -14.191406 -5.3125 -14.570312 -5.3125 -14.9375 C -5.3125 -15.9375 -4.960938 -16.734375 -4.265625 -17.328125 C -3.578125 -17.929688 -2.628906 -18.234375 -1.421875 -18.234375 C -0.335938 -18.234375 0.5625 -17.976562 1.28125 -17.46875 C 2.007812 -16.96875 2.601562 -16.296875 3.0625 -15.453125 C 3.519531 -14.617188 3.882812 -13.6875 4.15625 -12.65625 L 6.28125 -12.65625 L 6.28125 -10.421875 L 4.359375 -10.421875 L 4.359375 0 L 1.625 0 L 1.625 -10.421875 L 0 -10.421875 L 0 -12.65625 L 1.734375 -12.65625 C 1.390625 -13.738281 0.988281 -14.5625 0.53125 -15.125 C 0.0703125 -15.695312 -0.484375 -15.984375 -1.140625 -15.984375 C -1.628906 -15.984375 -1.988281 -15.847656 -2.21875 -15.578125 C -2.457031 -15.304688 -2.578125 -14.960938 -2.578125 -14.546875 C -2.578125 -14.140625 -2.523438 -13.769531 -2.421875 -13.4375 C -2.316406 -13.101562 -2.1875 -12.785156 -2.03125 -12.484375 Z M -4.65625 -12.515625 "/></g></g></g><g fill="#ffffff" fill-opacity="1"><g transform="translate(28.417068, 19.270875)"><g><path d="M 12.984375 -10.421875 L 12.984375 0 L 10.25 0 L 10.25 -2.96875 C 9.789062 -2.664062 9.257812 -2.453125 8.65625 -2.328125 C 8.0625 -2.210938 7.46875 -2.15625 6.875 -2.15625 C 5.570312 -2.15625 4.503906 -2.523438 3.671875 -3.265625 C 2.847656 -4.015625 2.253906 -5.109375 1.890625 -6.546875 C 3.148438 -6.816406 4.023438 -7.1875 4.515625 -7.65625 C 5.015625 -8.132812 5.265625 -8.71875 5.265625 -9.40625 C 5.265625 -9.863281 5.148438 -10.242188 4.921875 -10.546875 C 4.691406 -10.847656 4.335938 -11 3.859375 -11 C 3.585938 -11 3.378906 -10.929688 3.234375 -10.796875 C 3.085938 -10.660156 3.015625 -10.492188 3.015625 -10.296875 C 3.015625 -10.046875 3.101562 -9.847656 3.28125 -9.703125 C 3.457031 -9.566406 3.800781 -9.457031 4.3125 -9.375 L 3.75 -7.609375 C 2.820312 -7.734375 2.109375 -8.039062 1.609375 -8.53125 C 1.109375 -9.03125 0.859375 -9.660156 0.859375 -10.421875 C 0.859375 -10.984375 1 -11.441406 1.28125 -11.796875 C 1.5625 -12.160156 1.941406 -12.425781 2.421875 -12.59375 C 2.898438 -12.769531 3.425781 -12.859375 4 -12.859375 C 5.15625 -12.859375 6.109375 -12.550781 6.859375 -11.9375 C 7.617188 -11.332031 8 -10.4375 8 -9.25 C 8 -8.46875 7.796875 -7.726562 7.390625 -7.03125 C 6.992188 -6.34375 6.238281 -5.773438 5.125 -5.328125 C 5.613281 -4.703125 6.265625 -4.390625 7.078125 -4.390625 C 7.742188 -4.390625 8.332031 -4.507812 8.84375 -4.75 C 9.351562 -5 9.820312 -5.367188 10.25 -5.859375 L 10.25 -10.421875 L 8.96875 -10.421875 L 8.96875 -12.65625 L 14.890625 -12.65625 L 14.890625 -10.421875 Z M 12.984375 -10.421875 "/></g></g></g><g fill="#ffffff" fill-opacity="1"><g transform="translate(43.022528, 19.270875)"><g><path d="M -4.703125 -12.515625 C -4.984375 -12.972656 -5.207031 -13.441406 -5.375 -13.921875 C -5.550781 -14.398438 -5.640625 -14.863281 -5.640625 -15.3125 C -5.640625 -16.300781 -5.289062 -17.035156 -4.59375 -17.515625 C -3.90625 -17.992188 -3.039062 -18.234375 -2 -18.234375 C -1.53125 -18.234375 -1.09375 -18.203125 -0.6875 -18.140625 C -0.28125 -18.085938 0.078125 -18.015625 0.390625 -17.921875 L -0.125 -15.984375 C -0.382812 -16.066406 -0.617188 -16.117188 -0.828125 -16.140625 C -1.035156 -16.171875 -1.234375 -16.1875 -1.421875 -16.1875 C -1.953125 -16.1875 -2.332031 -16.0625 -2.5625 -15.8125 C -2.800781 -15.5625 -2.921875 -15.1875 -2.921875 -14.6875 C -2.921875 -14.34375 -2.835938 -13.972656 -2.671875 -13.578125 C -2.515625 -13.191406 -2.320312 -12.835938 -2.09375 -12.515625 Z M -4.703125 -12.515625 "/></g></g></g><g fill="#ffffff" fill-opacity="1"><g transform="translate(43.022528, 19.270875)"><g/></g></g><g fill="#ffffff" fill-opacity="1"><g transform="translate(47.819943, 19.270875)"><g><path d="M 10.84375 -10.421875 L 10.84375 0 L 8.109375 0 L 8.109375 -3.25 C 7.640625 -3 7.179688 -2.820312 6.734375 -2.71875 C 6.285156 -2.625 5.75 -2.578125 5.125 -2.578125 C 4.5 -2.578125 3.957031 -2.671875 3.5 -2.859375 C 3.039062 -3.046875 2.664062 -3.289062 2.375 -3.59375 C 2.039062 -3.976562 1.789062 -4.414062 1.625 -4.90625 C 1.46875 -5.40625 1.390625 -6.109375 1.390625 -7.015625 L 1.390625 -10.421875 L 0 -10.421875 L 0 -12.65625 L 12.75 -12.65625 L 12.75 -10.421875 Z M 8.109375 -10.421875 L 4.109375 -10.421875 L 4.109375 -7.1875 C 4.109375 -6.539062 4.140625 -6.085938 4.203125 -5.828125 C 4.273438 -5.578125 4.398438 -5.359375 4.578125 -5.171875 C 4.804688 -4.941406 5.179688 -4.828125 5.703125 -4.828125 C 6.210938 -4.828125 6.679688 -4.953125 7.109375 -5.203125 C 7.535156 -5.453125 7.867188 -5.695312 8.109375 -5.9375 Z M 8.109375 -10.421875 "/></g></g></g><g fill="#ffffff" fill-opacity="1"><g transform="translate(60.289515, 19.270875)"><g><path d="M -5.375 -0.140625 C -4.5625 -0.453125 -3.773438 -0.609375 -3.015625 -0.609375 C -1.929688 -0.609375 -1.078125 -0.320312 -0.453125 0.25 C 0.160156 0.832031 0.46875 1.570312 0.46875 2.46875 C 0.46875 3.332031 0.148438 4.046875 -0.484375 4.609375 C -1.117188 5.171875 -2.03125 5.453125 -3.21875 5.453125 C -4.1875 5.453125 -5.054688 5.3125 -5.828125 5.03125 C -6.609375 4.757812 -7.320312 4.367188 -7.96875 3.859375 C -8.613281 3.347656 -9.234375 2.753906 -9.828125 2.078125 L -7.96875 0.734375 C -7.132812 1.679688 -6.363281 2.359375 -5.65625 2.765625 C -4.945312 3.179688 -4.191406 3.390625 -3.390625 3.390625 C -2.929688 3.390625 -2.570312 3.304688 -2.3125 3.140625 C -2.0625 2.972656 -1.9375 2.71875 -1.9375 2.375 C -1.9375 2.039062 -2.050781 1.800781 -2.28125 1.65625 C -2.519531 1.507812 -2.804688 1.4375 -3.140625 1.4375 C -3.410156 1.4375 -3.671875 1.46875 -3.921875 1.53125 C -4.179688 1.59375 -4.425781 1.671875 -4.65625 1.765625 Z M -5.375 -0.140625 "/></g></g></g><g fill="#ffffff" fill-opacity="1"><g transform="translate(60.289515, 19.270875)"><g><path d="M 8.484375 -1.46875 L 6.71875 0.34375 C 5.519531 -0.675781 4.445312 -1.640625 3.5 -2.546875 C 2.550781 -3.453125 1.835938 -4.21875 1.359375 -4.84375 C 1.046875 -5.25 0.84375 -5.59375 0.75 -5.875 C 0.664062 -6.164062 0.625 -6.425781 0.625 -6.65625 C 0.625 -6.988281 0.742188 -7.320312 0.984375 -7.65625 C 1.222656 -8 1.640625 -8.171875 2.234375 -8.171875 C 2.910156 -8.171875 3.488281 -7.929688 3.96875 -7.453125 C 4.6875 -7.921875 5.046875 -8.550781 5.046875 -9.34375 C 5.046875 -9.726562 5.003906 -10.085938 4.921875 -10.421875 L 0 -10.421875 L 0 -12.65625 L 9.21875 -12.65625 L 9.21875 -10.421875 L 7.59375 -10.421875 C 7.644531 -10.222656 7.6875 -10 7.71875 -9.75 C 7.75 -9.5 7.765625 -9.210938 7.765625 -8.890625 C 7.765625 -7.953125 7.476562 -7.160156 6.90625 -6.515625 C 6.34375 -5.867188 5.539062 -5.351562 4.5 -4.96875 C 5.03125 -4.4375 5.640625 -3.859375 6.328125 -3.234375 C 7.015625 -2.609375 7.734375 -2.019531 8.484375 -1.46875 Z M 8.484375 -1.46875 "/></g></g></g><g fill="#ffffff" fill-opacity="1"><g transform="translate(69.199258, 19.270875)"><g><path d="M 4.359375 -10.421875 L 4.359375 0 L 1.625 0 L 1.625 -10.421875 L 0 -10.421875 L 0 -12.65625 L 6.28125 -12.65625 L 6.28125 -10.421875 Z M 1.765625 -12.515625 C 1.535156 -13.316406 1.304688 -13.96875 1.078125 -14.46875 C 0.859375 -14.976562 0.601562 -15.351562 0.3125 -15.59375 C 0.0195312 -15.832031 -0.351562 -15.953125 -0.8125 -15.953125 C -1.082031 -15.953125 -1.332031 -15.921875 -1.5625 -15.859375 C -1.789062 -15.804688 -2 -15.75 -2.1875 -15.6875 L -2.921875 -17.828125 C -2.597656 -17.960938 -2.265625 -18.0625 -1.921875 -18.125 C -1.578125 -18.195312 -1.203125 -18.234375 -0.796875 -18.234375 C -0.242188 -18.234375 0.257812 -18.160156 0.71875 -18.015625 C 1.175781 -17.867188 1.601562 -17.597656 2 -17.203125 C 2.40625 -16.816406 2.785156 -16.242188 3.140625 -15.484375 C 3.503906 -14.734375 3.851562 -13.742188 4.1875 -12.515625 Z M 1.765625 -12.515625 "/></g></g></g><g fill="#ffffff" fill-opacity="1"><g transform="translate(75.179767, 19.270875)"><g><path d="M 1.625 -10.421875 L 0 -10.421875 L 0 -12.65625 L 1.53125 -12.65625 C 1.363281 -13.007812 1.226562 -13.351562 1.125 -13.6875 C 1.019531 -14.03125 0.96875 -14.367188 0.96875 -14.703125 C 0.96875 -15.773438 1.394531 -16.628906 2.25 -17.265625 C 3.113281 -17.910156 4.367188 -18.234375 6.015625 -18.234375 C 7.523438 -18.234375 8.894531 -17.96875 10.125 -17.4375 C 11.363281 -16.90625 12.488281 -16.203125 13.5 -15.328125 C 14.507812 -14.460938 15.425781 -13.523438 16.25 -12.515625 L 13.140625 -12.515625 C 12.140625 -13.617188 11.078125 -14.46875 9.953125 -15.0625 C 8.835938 -15.664062 7.65625 -15.96875 6.40625 -15.96875 C 5.53125 -15.96875 4.863281 -15.804688 4.40625 -15.484375 C 3.945312 -15.171875 3.71875 -14.734375 3.71875 -14.171875 C 3.71875 -13.890625 3.757812 -13.613281 3.84375 -13.34375 C 3.925781 -13.082031 4.03125 -12.851562 4.15625 -12.65625 L 6.28125 -12.65625 L 6.28125 -10.421875 L 4.359375 -10.421875 L 4.359375 0 L 1.625 0 Z M 1.625 -10.421875 "/></g></g></g><g fill="#ffffff" fill-opacity="1"><g transform="translate(81.160275, 19.270875)"><g><path d="M 6.828125 -1.46875 C 7.203125 -1.5625 7.503906 -1.6875 7.734375 -1.84375 C 7.972656 -2 8.09375 -2.210938 8.09375 -2.484375 C 8.09375 -2.804688 7.9375 -3.054688 7.625 -3.234375 C 7.3125 -3.410156 6.796875 -3.5 6.078125 -3.5 C 5.273438 -3.5 4.664062 -3.351562 4.25 -3.0625 C 3.84375 -2.769531 3.640625 -2.375 3.640625 -1.875 C 3.640625 -1.53125 3.71875 -1.195312 3.875 -0.875 C 4.03125 -0.5625 4.3125 -0.210938 4.71875 0.171875 C 5.125 0.566406 5.710938 1.050781 6.484375 1.625 L 4.71875 3.4375 C 3.945312 2.800781 3.273438 2.195312 2.703125 1.625 C 2.128906 1.050781 1.6875 0.472656 1.375 -0.109375 C 1.070312 -0.703125 0.921875 -1.34375 0.921875 -2.03125 C 0.921875 -2.550781 1.015625 -3.007812 1.203125 -3.40625 C 1.398438 -3.800781 1.664062 -4.148438 2 -4.453125 C 1.75 -4.734375 1.546875 -5.050781 1.390625 -5.40625 C 1.234375 -5.769531 1.15625 -6.191406 1.15625 -6.671875 C 1.15625 -7.109375 1.234375 -7.476562 1.390625 -7.78125 C 1.546875 -8.082031 1.753906 -8.332031 2.015625 -8.53125 C 2.347656 -8.800781 2.75 -8.992188 3.21875 -9.109375 C 3.6875 -9.222656 4.335938 -9.28125 5.171875 -9.28125 L 7.25 -9.28125 L 7.25 -10.421875 L 0 -10.421875 L 0 -12.65625 L 11.875 -12.65625 L 11.875 -10.421875 L 9.96875 -10.421875 L 9.96875 -7.03125 L 5.25 -7.03125 C 4.863281 -7.03125 4.597656 -7.015625 4.453125 -6.984375 C 4.304688 -6.953125 4.1875 -6.894531 4.09375 -6.8125 C 3.914062 -6.675781 3.828125 -6.472656 3.828125 -6.203125 C 3.828125 -5.972656 3.921875 -5.742188 4.109375 -5.515625 C 4.742188 -5.671875 5.429688 -5.75 6.171875 -5.75 C 7.265625 -5.75 8.148438 -5.597656 8.828125 -5.296875 C 9.503906 -4.992188 10 -4.597656 10.3125 -4.109375 C 10.625 -3.617188 10.78125 -3.101562 10.78125 -2.5625 C 10.78125 -0.894531 9.707031 0.1875 7.5625 0.6875 Z M 6.828125 -1.46875 "/></g></g></g><g fill="#ffffff" fill-opacity="1"><g transform="translate(92.755145, 19.270875)"><g><path d="M 11.0625 -10.421875 L 11.0625 0 L 8.34375 0 L 8.34375 -6.078125 L 6.484375 -6.078125 C 5.742188 -6.078125 5.1875 -6.039062 4.8125 -5.96875 C 4.445312 -5.894531 4.160156 -5.769531 3.953125 -5.59375 C 3.648438 -5.351562 3.5 -5.007812 3.5 -4.5625 C 3.5 -4.09375 3.707031 -3.609375 4.125 -3.109375 C 4.550781 -2.617188 5.171875 -2.070312 5.984375 -1.46875 L 4.21875 0.34375 C 3.570312 -0.1875 2.988281 -0.734375 2.46875 -1.296875 C 1.957031 -1.859375 1.546875 -2.445312 1.234375 -3.0625 C 0.921875 -3.675781 0.765625 -4.320312 0.765625 -5 C 0.765625 -5.488281 0.859375 -5.929688 1.046875 -6.328125 C 1.234375 -6.722656 1.472656 -7.046875 1.765625 -7.296875 C 2.171875 -7.648438 2.660156 -7.910156 3.234375 -8.078125 C 3.816406 -8.242188 4.640625 -8.328125 5.703125 -8.328125 L 8.34375 -8.328125 L 8.34375 -10.421875 L 0 -10.421875 L 0 -12.65625 L 12.984375 -12.65625 L 12.984375 -10.421875 Z M 11.0625 -10.421875 "/></g></g></g><g fill="#ffffff" fill-opacity="1"><g transform="translate(105.44858, 19.270875)"><g/></g></g><g fill="#ffffff" fill-opacity="1"><g transform="translate(16.160317, 44.250466)"><g><path d="M 11.59375 -10.140625 L 9.671875 -10.140625 L 9.671875 0 L 8.1875 0 L 8.1875 -2.765625 C 7.800781 -2.515625 7.382812 -2.304688 6.9375 -2.140625 C 6.488281 -1.972656 5.910156 -1.890625 5.203125 -1.890625 C 4.253906 -1.890625 3.488281 -2.140625 2.90625 -2.640625 C 2.332031 -3.140625 2.046875 -3.796875 2.046875 -4.609375 C 2.046875 -4.941406 2.097656 -5.257812 2.203125 -5.5625 C 2.316406 -5.875 2.488281 -6.15625 2.71875 -6.40625 C 2.144531 -6.625 1.675781 -6.945312 1.3125 -7.375 C 0.945312 -7.8125 0.765625 -8.375 0.765625 -9.0625 C 0.765625 -9.800781 1.015625 -10.410156 1.515625 -10.890625 C 2.023438 -11.378906 2.664062 -11.625 3.4375 -11.625 C 4.082031 -11.625 4.625 -11.453125 5.0625 -11.109375 C 5.5 -10.765625 5.71875 -10.316406 5.71875 -9.765625 C 5.71875 -9.191406 5.472656 -8.648438 4.984375 -8.140625 L 3.859375 -8.859375 C 3.984375 -8.984375 4.078125 -9.113281 4.140625 -9.25 C 4.203125 -9.394531 4.234375 -9.535156 4.234375 -9.671875 C 4.234375 -9.859375 4.171875 -10.035156 4.046875 -10.203125 C 3.921875 -10.367188 3.703125 -10.453125 3.390625 -10.453125 C 3.046875 -10.453125 2.75 -10.316406 2.5 -10.046875 C 2.257812 -9.773438 2.140625 -9.425781 2.140625 -9 C 2.140625 -8.601562 2.234375 -8.285156 2.421875 -8.046875 C 2.609375 -7.804688 2.851562 -7.628906 3.15625 -7.515625 C 3.457031 -7.410156 3.769531 -7.335938 4.09375 -7.296875 C 4.46875 -7.398438 4.867188 -7.453125 5.296875 -7.453125 C 5.429688 -7.453125 5.582031 -7.441406 5.75 -7.421875 C 5.914062 -7.410156 6.039062 -7.398438 6.125 -7.390625 L 6 -6.109375 C 5.925781 -6.117188 5.835938 -6.125 5.734375 -6.125 C 5.628906 -6.125 5.546875 -6.125 5.484375 -6.125 C 4.867188 -6.125 4.382812 -6 4.03125 -5.75 C 3.6875 -5.5 3.515625 -5.140625 3.515625 -4.671875 C 3.515625 -4.171875 3.6875 -3.796875 4.03125 -3.546875 C 4.382812 -3.304688 4.832031 -3.1875 5.375 -3.1875 C 6.019531 -3.1875 6.566406 -3.316406 7.015625 -3.578125 C 7.472656 -3.835938 7.863281 -4.144531 8.1875 -4.5 L 8.1875 -10.140625 L 7.046875 -10.140625 L 7.046875 -11.4375 L 11.59375 -11.4375 Z M 11.59375 -10.140625 "/></g></g></g><g fill="#ffffff" fill-opacity="1"><g transform="translate(27.463276, 44.250466)"><g><path d="M 9.359375 -10.140625 L 9.359375 0 L 7.875 0 L 7.875 -4.59375 L 3.8125 -4.59375 L 3.8125 -3.921875 C 3.8125 -3.515625 3.722656 -3.222656 3.546875 -3.046875 C 3.367188 -2.867188 3.160156 -2.78125 2.921875 -2.78125 C 2.691406 -2.78125 2.445312 -2.851562 2.1875 -3 C 1.925781 -3.15625 1.6875 -3.351562 1.46875 -3.59375 C 1.25 -3.832031 1.066406 -4.085938 0.921875 -4.359375 C 0.785156 -4.628906 0.71875 -4.878906 0.71875 -5.109375 C 0.71875 -5.328125 0.800781 -5.515625 0.96875 -5.671875 C 1.132812 -5.828125 1.425781 -5.90625 1.84375 -5.90625 L 2.3125 -5.90625 L 2.3125 -10.140625 L 0 -10.140625 L 0 -11.4375 L 11.25 -11.4375 L 11.25 -10.140625 Z M 7.875 -10.140625 L 3.8125 -10.140625 L 3.8125 -5.90625 L 7.875 -5.90625 Z M 7.875 -10.140625 "/></g></g></g><g fill="#ffffff" fill-opacity="1"><g transform="translate(38.453796, 44.250466)"><g><path d="M -3.109375 -11.3125 C -3.367188 -12.28125 -3.625 -13.039062 -3.875 -13.59375 C -4.125 -14.15625 -4.398438 -14.550781 -4.703125 -14.78125 C -5.015625 -15.019531 -5.378906 -15.140625 -5.796875 -15.140625 C -6.078125 -15.140625 -6.316406 -15.109375 -6.515625 -15.046875 C -6.722656 -14.992188 -6.910156 -14.9375 -7.078125 -14.875 L -7.515625 -16.21875 C -7.035156 -16.394531 -6.476562 -16.484375 -5.84375 -16.484375 C -5.25 -16.484375 -4.765625 -16.378906 -4.390625 -16.171875 C -4.023438 -15.960938 -3.671875 -15.59375 -3.328125 -15.0625 C -3.023438 -16.007812 -2.253906 -16.484375 -1.015625 -16.484375 C -0.617188 -16.484375 -0.257812 -16.4375 0.0625 -16.34375 C 0.394531 -16.257812 0.6875 -16.15625 0.9375 -16.03125 L 0.53125 -14.828125 C 0.320312 -14.929688 0.101562 -15.019531 -0.125 -15.09375 C -0.363281 -15.164062 -0.613281 -15.203125 -0.875 -15.203125 C -1.375 -15.203125 -1.75 -15.0625 -2 -14.78125 C -2.257812 -14.507812 -2.390625 -14.160156 -2.390625 -13.734375 C -2.390625 -13.597656 -2.382812 -13.472656 -2.375 -13.359375 C -2.15625 -12.773438 -1.941406 -12.09375 -1.734375 -11.3125 Z M -0.546875 -12.390625 C -0.796875 -12.390625 -1.007812 -12.476562 -1.1875 -12.65625 C -1.375 -12.832031 -1.46875 -13.050781 -1.46875 -13.3125 C -1.46875 -13.570312 -1.375 -13.789062 -1.1875 -13.96875 C -1.007812 -14.144531 -0.796875 -14.234375 -0.546875 -14.234375 C -0.296875 -14.234375 -0.0820312 -14.144531 0.09375 -13.96875 C 0.28125 -13.789062 0.375 -13.570312 0.375 -13.3125 C 0.375 -13.050781 0.28125 -12.832031 0.09375 -12.65625 C -0.0820312 -12.476562 -0.296875 -12.390625 -0.546875 -12.390625 Z M -0.546875 -12.390625 "/></g></g></g><g fill="#ffffff" fill-opacity="1"><g transform="translate(38.453796, 44.250466)"><g><path d="M 0.765625 -0.078125 L 3.921875 -1.484375 C 3.378906 -1.597656 2.875 -1.789062 2.40625 -2.0625 C 1.9375 -2.34375 1.554688 -2.722656 1.265625 -3.203125 C 0.984375 -3.679688 0.84375 -4.28125 0.84375 -5 C 0.84375 -5.539062 0.929688 -6.003906 1.109375 -6.390625 C 1.296875 -6.773438 1.550781 -7.101562 1.875 -7.375 C 2.28125 -7.726562 2.773438 -7.984375 3.359375 -8.140625 C 3.953125 -8.304688 4.609375 -8.390625 5.328125 -8.390625 L 5.421875 -8.390625 L 5.421875 -10.140625 L 0 -10.140625 L 0 -11.4375 L 9.828125 -11.4375 L 9.828125 -10.140625 L 6.921875 -10.140625 L 6.921875 -7.078125 L 6.015625 -7.078125 C 5.285156 -7.078125 4.707031 -7.035156 4.28125 -6.953125 C 3.851562 -6.867188 3.488281 -6.726562 3.1875 -6.53125 C 2.90625 -6.34375 2.6875 -6.109375 2.53125 -5.828125 C 2.382812 -5.546875 2.3125 -5.207031 2.3125 -4.8125 C 2.3125 -4.164062 2.550781 -3.628906 3.03125 -3.203125 C 3.519531 -2.785156 4.269531 -2.578125 5.28125 -2.578125 C 5.351562 -2.578125 5.425781 -2.578125 5.5 -2.578125 C 5.570312 -2.578125 5.648438 -2.582031 5.734375 -2.59375 C 5.660156 -2.832031 5.625 -3.046875 5.625 -3.234375 C 5.625 -3.648438 5.753906 -3.945312 6.015625 -4.125 C 6.273438 -4.3125 6.554688 -4.40625 6.859375 -4.40625 C 7.390625 -4.40625 7.789062 -4.253906 8.0625 -3.953125 C 8.34375 -3.660156 8.484375 -3.335938 8.484375 -2.984375 C 8.484375 -2.585938 8.390625 -2.28125 8.203125 -2.0625 C 8.023438 -1.851562 7.804688 -1.691406 7.546875 -1.578125 C 7.691406 -1.285156 7.863281 -0.984375 8.0625 -0.671875 C 8.269531 -0.359375 8.523438 0.0078125 8.828125 0.4375 L 7.59375 1.0625 C 7.332031 0.644531 7.085938 0.222656 6.859375 -0.203125 C 6.628906 -0.628906 6.441406 -1.007812 6.296875 -1.34375 L 1.515625 1.21875 Z M 0.765625 -0.078125 "/></g></g></g><g fill="#ffffff" fill-opacity="1"><g transform="translate(48.010769, 44.250466)"><g/></g></g><g fill="#ffffff" fill-opacity="1"><g transform="translate(52.973046, 44.250466)"><g><path d="M 8.640625 -4.015625 C 8.640625 -3.148438 8.359375 -2.507812 7.796875 -2.09375 C 7.242188 -1.675781 6.554688 -1.46875 5.734375 -1.46875 C 4.679688 -1.46875 3.742188 -1.859375 2.921875 -2.640625 C 2.097656 -3.429688 1.300781 -4.734375 0.53125 -6.546875 L 1.84375 -7.03125 C 2.363281 -5.726562 2.929688 -4.695312 3.546875 -3.9375 C 4.160156 -3.1875 4.847656 -2.8125 5.609375 -2.8125 C 6.066406 -2.8125 6.441406 -2.914062 6.734375 -3.125 C 7.035156 -3.34375 7.1875 -3.691406 7.1875 -4.171875 C 7.1875 -4.628906 7.0625 -5.035156 6.8125 -5.390625 C 6.5625 -5.742188 6.238281 -6.070312 5.84375 -6.375 C 5.519531 -6.320312 5.164062 -6.285156 4.78125 -6.265625 L 4.6875 -7.5625 C 5.519531 -7.582031 6.109375 -7.722656 6.453125 -7.984375 C 6.804688 -8.253906 6.984375 -8.617188 6.984375 -9.078125 C 6.984375 -9.523438 6.835938 -9.84375 6.546875 -10.03125 C 6.265625 -10.226562 5.929688 -10.328125 5.546875 -10.328125 C 5.085938 -10.328125 4.675781 -10.265625 4.3125 -10.140625 C 3.945312 -10.023438 3.554688 -9.863281 3.140625 -9.65625 L 2.6875 -10.921875 C 3 -11.097656 3.390625 -11.257812 3.859375 -11.40625 C 4.328125 -11.550781 4.867188 -11.625 5.484375 -11.625 C 6.441406 -11.625 7.171875 -11.382812 7.671875 -10.90625 C 8.179688 -10.425781 8.4375 -9.828125 8.4375 -9.109375 C 8.4375 -8.148438 8.023438 -7.410156 7.203125 -6.890625 C 7.335938 -6.773438 7.460938 -6.65625 7.578125 -6.53125 C 8.046875 -6.46875 8.5 -6.4375 8.9375 -6.4375 C 9.332031 -6.4375 9.679688 -6.453125 9.984375 -6.484375 C 10.296875 -6.523438 10.609375 -6.585938 10.921875 -6.671875 L 10.921875 -10.140625 L 9.578125 -10.140625 L 9.578125 -11.4375 L 19.09375 -11.4375 L 19.09375 -10.140625 L 17.171875 -10.140625 L 17.171875 0 L 15.6875 0 L 15.6875 -10.140625 L 12.40625 -10.140625 L 12.40625 0 L 10.921875 0 L 10.921875 -5.328125 C 10.628906 -5.253906 10.34375 -5.203125 10.0625 -5.171875 C 9.78125 -5.140625 9.476562 -5.125 9.15625 -5.125 C 8.945312 -5.125 8.6875 -5.144531 8.375 -5.1875 C 8.550781 -4.820312 8.640625 -4.429688 8.640625 -4.015625 Z M 8.640625 -4.015625 "/></g></g></g><g fill="#ffffff" fill-opacity="1"><g transform="translate(71.774566, 44.250466)"><g><path d="M 11.9375 -10.140625 L 10.015625 -10.140625 L 10.015625 0 L 8.546875 0 L 8.546875 -3.03125 C 8.234375 -2.820312 7.851562 -2.625 7.40625 -2.4375 C 6.96875 -2.257812 6.441406 -2.171875 5.828125 -2.171875 C 4.878906 -2.171875 4.101562 -2.429688 3.5 -2.953125 C 2.894531 -3.484375 2.59375 -4.1875 2.59375 -5.0625 C 2.59375 -5.414062 2.664062 -5.742188 2.8125 -6.046875 C 2.96875 -6.359375 3.164062 -6.617188 3.40625 -6.828125 L 0.703125 -6.78125 L 0.703125 -8.109375 L 6.09375 -8.109375 C 6.3125 -8.109375 6.523438 -8.101562 6.734375 -8.09375 C 6.953125 -8.09375 7.09375 -8.09375 7.15625 -8.09375 L 7.03125 -6.796875 L 6.4375 -6.796875 C 5.726562 -6.796875 5.15625 -6.644531 4.71875 -6.34375 C 4.28125 -6.050781 4.0625 -5.613281 4.0625 -5.03125 C 4.0625 -4.507812 4.238281 -4.113281 4.59375 -3.84375 C 4.945312 -3.582031 5.359375 -3.453125 5.828125 -3.453125 C 6.429688 -3.453125 6.953125 -3.582031 7.390625 -3.84375 C 7.835938 -4.113281 8.222656 -4.425781 8.546875 -4.78125 L 8.546875 -10.140625 L 0 -10.140625 L 0 -11.4375 L 11.9375 -11.4375 Z M 11.9375 -10.140625 "/></g></g></g><g fill="#ffffff" fill-opacity="1"><g transform="translate(83.426721, 44.250466)"><g><path d="M 3.125 -10.140625 L 3.125 0 L 1.640625 0 L 1.640625 -10.140625 L 0 -10.140625 L 0 -11.4375 L 5.015625 -11.4375 L 5.015625 -10.140625 Z M 3.125 -10.140625 "/></g></g></g><g fill="#ffffff" fill-opacity="1"><g transform="translate(88.186828, 44.250466)"><g><path d="M 10.9375 -11.4375 L 10.9375 -10.140625 L 9.03125 -10.140625 L 9.03125 0 L 7.546875 0 L 7.546875 -3.296875 C 7.203125 -3.066406 6.789062 -2.863281 6.3125 -2.6875 C 5.832031 -2.507812 5.28125 -2.421875 4.65625 -2.421875 C 3.550781 -2.421875 2.65625 -2.789062 1.96875 -3.53125 C 1.289062 -4.28125 0.867188 -5.265625 0.703125 -6.484375 C 1.460938 -6.648438 2.023438 -6.875 2.390625 -7.15625 C 2.753906 -7.445312 2.9375 -7.863281 2.9375 -8.40625 C 2.9375 -8.75 2.863281 -9.066406 2.71875 -9.359375 C 2.582031 -9.648438 2.429688 -9.910156 2.265625 -10.140625 L 0 -10.140625 L 0 -11.4375 Z M 2.375 -5.53125 C 2.601562 -4.9375 2.90625 -4.488281 3.28125 -4.1875 C 3.664062 -3.882812 4.160156 -3.734375 4.765625 -3.734375 C 5.378906 -3.734375 5.910156 -3.859375 6.359375 -4.109375 C 6.816406 -4.367188 7.210938 -4.675781 7.546875 -5.03125 L 7.546875 -10.140625 L 3.875 -10.140625 C 4.226562 -9.492188 4.40625 -8.84375 4.40625 -8.1875 C 4.40625 -6.863281 3.726562 -5.976562 2.375 -5.53125 Z M 2.375 -5.53125 "/></g></g></g><g fill="#ffffff" fill-opacity="1"><g transform="translate(98.846537, 44.250466)"><g><path d="M -3.5 -11.3125 C -3.75 -11.738281 -3.960938 -12.1875 -4.140625 -12.65625 C -4.316406 -13.125 -4.40625 -13.578125 -4.40625 -14.015625 C -4.40625 -14.835938 -4.132812 -15.453125 -3.59375 -15.859375 C -3.050781 -16.273438 -2.375 -16.484375 -1.5625 -16.484375 C -1.164062 -16.484375 -0.800781 -16.4375 -0.46875 -16.34375 C -0.144531 -16.257812 0.140625 -16.15625 0.390625 -16.03125 L -0.015625 -14.828125 C -0.222656 -14.929688 -0.441406 -15.019531 -0.671875 -15.09375 C -0.910156 -15.164062 -1.164062 -15.203125 -1.4375 -15.203125 C -1.925781 -15.203125 -2.296875 -15.0625 -2.546875 -14.78125 C -2.804688 -14.507812 -2.9375 -14.160156 -2.9375 -13.734375 C -2.9375 -13.328125 -2.851562 -12.929688 -2.6875 -12.546875 C -2.53125 -12.160156 -2.296875 -11.75 -1.984375 -11.3125 Z M -3.5 -11.3125 "/></g></g></g><g fill="#ffffff" fill-opacity="1"><g transform="translate(98.847815, 44.250466)"><g/></g></g></svg>