<svg width="273" height="82" viewBox="0 0 273 82" fill="none" xmlns="http://www.w3.org/2000/svg">
<rect width="154" height="53" rx="8" fill="url(#paint0_linear_73_19)"/>
<path d="M44.3819 33L40.4241 18.5255H42.2051L45.23 30.3143H45.3714L48.4529 18.5255H50.4318L53.5133 30.3143H53.6547L56.6796 18.5255H58.4606L54.5028 33H52.6935L49.4989 21.4656H49.3858L46.1912 33H44.3819ZM62.0863 26.4695V33H60.4184V18.5255H62.0863V23.8404H62.2277C62.4821 23.2797 62.8638 22.8344 63.3726 22.5046C63.8862 22.17 64.5694 22.0028 65.4223 22.0028C66.162 22.0028 66.8099 22.1512 67.3659 22.448C67.9218 22.7402 68.353 23.1901 68.6592 23.7979C68.9702 24.4011 69.1257 25.1691 69.1257 26.102V33H67.4577V26.2151C67.4577 25.3528 67.2339 24.6861 66.7863 24.2149C66.3434 23.7391 65.7285 23.5011 64.9417 23.5011C64.3951 23.5011 63.9051 23.6165 63.4716 23.8474C63.0428 24.0783 62.7036 24.4152 62.4539 24.8581C62.2088 25.301 62.0863 25.8381 62.0863 26.4695ZM75.3717 33.2544C74.6838 33.2544 74.0595 33.1249 73.4988 32.8657C72.9381 32.6019 72.4928 32.2226 72.163 31.7278C71.8332 31.2284 71.6683 30.6253 71.6683 29.9185C71.6683 29.2966 71.7908 28.7924 72.0358 28.406C72.2808 28.015 72.6083 27.7087 73.0182 27.4873C73.4281 27.2658 73.8804 27.1009 74.3752 26.9925C74.8746 26.8794 75.3764 26.7899 75.8806 26.7239C76.5402 26.6391 77.075 26.5755 77.4849 26.5331C77.8996 26.486 78.2011 26.4083 78.3896 26.2999C78.5828 26.1915 78.6794 26.003 78.6794 25.7345V25.6779C78.6794 24.9806 78.4885 24.4387 78.1069 24.0524C77.7299 23.666 77.1575 23.4728 76.3894 23.4728C75.5932 23.4728 74.9689 23.6472 74.5165 23.9958C74.0642 24.3445 73.7462 24.7167 73.5624 25.1125L71.9792 24.5471C72.262 23.8875 72.6389 23.3739 73.1101 23.0064C73.586 22.6341 74.1042 22.375 74.6649 22.2289C75.2304 22.0782 75.7863 22.0028 76.3329 22.0028C76.6816 22.0028 77.0821 22.0452 77.5344 22.13C77.9914 22.2101 78.432 22.3774 78.856 22.6318C79.2848 22.8862 79.6406 23.2702 79.9233 23.7838C80.206 24.2974 80.3473 24.9853 80.3473 25.8476V33H78.6794V31.5299H78.5945C78.4815 31.7655 78.293 32.0176 78.0291 32.2862C77.7653 32.5547 77.4143 32.7833 76.9761 32.9717C76.5379 33.1602 76.0031 33.2544 75.3717 33.2544ZM75.6261 31.7561C76.2858 31.7561 76.8418 31.6265 77.2941 31.3674C77.7511 31.1082 78.0951 30.7737 78.326 30.3638C78.5616 29.9539 78.6794 29.5227 78.6794 29.0704V27.5438C78.6087 27.6286 78.4532 27.7063 78.2129 27.777C77.9773 27.843 77.704 27.9019 77.393 27.9537C77.0868 28.0008 76.7876 28.0432 76.4955 28.0809C76.208 28.1139 75.9748 28.1422 75.7958 28.1657C75.3623 28.2223 74.9571 28.3142 74.5801 28.4414C74.2079 28.5639 73.9064 28.75 73.6755 28.9997C73.4493 29.2447 73.3362 29.5793 73.3362 30.0033C73.3362 30.5829 73.5506 31.0211 73.9794 31.3179C74.4129 31.61 74.9618 31.7561 75.6261 31.7561ZM88.1129 22.1441V23.5576H82.487V22.1441H88.1129ZM84.1267 19.5432H85.7947V29.8902C85.7947 30.3614 85.863 30.7148 85.9997 30.9504C86.141 31.1813 86.3201 31.3368 86.5368 31.4169C86.7582 31.4922 86.9915 31.5299 87.2365 31.5299C87.4202 31.5299 87.571 31.5205 87.6888 31.5017C87.8066 31.4781 87.9008 31.4593 87.9715 31.4451L88.3108 32.9435C88.1977 32.9859 88.0398 33.0283 87.8372 33.0707C87.6346 33.1178 87.3778 33.1414 87.0669 33.1414C86.5957 33.1414 86.1339 33.04 85.6816 32.8374C85.234 32.6348 84.8618 32.3262 84.5649 31.9116C84.2728 31.497 84.1267 30.9739 84.1267 30.3426V19.5432ZM98.1171 24.5754L96.6188 24.9994C96.5245 24.7497 96.3855 24.5071 96.2018 24.2715C96.0227 24.0312 95.7777 23.8333 95.4667 23.6778C95.1558 23.5223 94.7576 23.4446 94.2723 23.4446C93.608 23.4446 93.0543 23.5977 92.6114 23.904C92.1732 24.2055 91.9541 24.5895 91.9541 25.056C91.9541 25.4706 92.1049 25.7981 92.4065 26.0384C92.708 26.2787 93.1792 26.4789 93.82 26.6391L95.4314 27.0349C96.402 27.2705 97.1253 27.631 97.6012 28.1163C98.077 28.5969 98.315 29.2165 98.315 29.9751C98.315 30.597 98.1359 31.153 97.7779 31.643C97.4245 32.133 96.9297 32.5194 96.2937 32.8021C95.6576 33.0848 94.9178 33.2262 94.0744 33.2262C92.9672 33.2262 92.0507 32.9859 91.3251 32.5053C90.5995 32.0247 90.1401 31.3226 89.9469 30.3991L91.5301 30.0033C91.6808 30.5876 91.9659 31.0258 92.3853 31.3179C92.8093 31.61 93.3629 31.7561 94.0461 31.7561C94.8236 31.7561 95.4408 31.5912 95.8979 31.2614C96.3596 30.9268 96.5905 30.5263 96.5905 30.0599C96.5905 29.6829 96.4586 29.3672 96.1947 29.1128C95.9308 28.8537 95.5256 28.6605 94.9791 28.5333L93.1698 28.1092C92.1756 27.8736 91.4453 27.5085 90.9788 27.0137C90.517 26.5143 90.2862 25.89 90.2862 25.1408C90.2862 24.5283 90.4581 23.9864 90.8021 23.5152C91.1508 23.0441 91.6243 22.6742 92.2227 22.4056C92.8258 22.1371 93.509 22.0028 94.2723 22.0028C95.3466 22.0028 96.19 22.2384 96.8025 22.7095C97.4198 23.1807 97.858 23.8027 98.1171 24.5754ZM104.02 33.2544C103.332 33.2544 102.708 33.1249 102.147 32.8657C101.587 32.6019 101.141 32.2226 100.812 31.7278C100.482 31.2284 100.317 30.6253 100.317 29.9185C100.317 29.2966 100.439 28.7924 100.684 28.406C100.929 28.015 101.257 27.7087 101.667 27.4873C102.077 27.2658 102.529 27.1009 103.024 26.9925C103.523 26.8794 104.025 26.7899 104.529 26.7239C105.189 26.6391 105.724 26.5755 106.134 26.5331C106.548 26.486 106.85 26.4083 107.038 26.2999C107.231 26.1915 107.328 26.003 107.328 25.7345V25.6779C107.328 24.9806 107.137 24.4387 106.756 24.0524C106.379 23.666 105.806 23.4728 105.038 23.4728C104.242 23.4728 103.617 23.6472 103.165 23.9958C102.713 24.3445 102.395 24.7167 102.211 25.1125L100.628 24.5471C100.911 23.8875 101.288 23.3739 101.759 23.0064C102.235 22.6341 102.753 22.375 103.314 22.2289C103.879 22.0782 104.435 22.0028 104.982 22.0028C105.33 22.0028 105.731 22.0452 106.183 22.13C106.64 22.2101 107.081 22.3774 107.505 22.6318C107.933 22.8862 108.289 23.2702 108.572 23.7838C108.855 24.2974 108.996 24.9853 108.996 25.8476V33H107.328V31.5299H107.243C107.13 31.7655 106.942 32.0176 106.678 32.2862C106.414 32.5547 106.063 32.7833 105.625 32.9717C105.186 33.1602 104.652 33.2544 104.02 33.2544ZM104.275 31.7561C104.934 31.7561 105.49 31.6265 105.943 31.3674C106.4 31.1082 106.744 30.7737 106.975 30.3638C107.21 29.9539 107.328 29.5227 107.328 29.0704V27.5438C107.257 27.6286 107.102 27.7063 106.862 27.777C106.626 27.843 106.353 27.9019 106.042 27.9537C105.735 28.0008 105.436 28.0432 105.144 28.0809C104.857 28.1139 104.623 28.1422 104.444 28.1657C104.011 28.2223 103.606 28.3142 103.229 28.4414C102.857 28.5639 102.555 28.75 102.324 28.9997C102.098 29.2447 101.985 29.5793 101.985 30.0033C101.985 30.5829 102.199 31.0211 102.628 31.3179C103.061 31.61 103.61 31.7561 104.275 31.7561ZM112.04 37.071V22.1441H113.652V23.8686H113.85C113.972 23.6802 114.142 23.4399 114.359 23.1477C114.58 22.8509 114.896 22.587 115.306 22.3562C115.72 22.1206 116.281 22.0028 116.988 22.0028C117.902 22.0028 118.707 22.2313 119.405 22.6883C120.102 23.1454 120.646 23.7932 121.037 24.6319C121.428 25.4706 121.624 26.4601 121.624 27.6003C121.624 28.75 121.428 29.7465 121.037 30.5899C120.646 31.4286 120.104 32.0789 119.412 32.5406C118.719 32.9976 117.921 33.2262 117.016 33.2262C116.319 33.2262 115.76 33.1107 115.341 32.8799C114.922 32.6443 114.599 32.378 114.373 32.0812C114.146 31.7797 113.972 31.5299 113.85 31.332H113.708V37.071H112.04ZM113.68 27.5721C113.68 28.3919 113.8 29.1152 114.04 29.7418C114.281 30.3638 114.632 30.8514 115.094 31.2048C115.555 31.5535 116.121 31.7278 116.79 31.7278C117.487 31.7278 118.069 31.5441 118.535 31.1766C119.007 30.8043 119.36 30.3049 119.596 29.6782C119.836 29.0468 119.956 28.3448 119.956 27.5721C119.956 26.8088 119.838 26.1208 119.603 25.5083C119.372 24.8911 119.021 24.4034 118.55 24.0453C118.083 23.6825 117.497 23.5011 116.79 23.5011C116.111 23.5011 115.541 23.6731 115.079 24.017C114.618 24.3563 114.269 24.8322 114.033 25.4447C113.798 26.0525 113.68 26.7616 113.68 27.5721ZM124.168 37.071V22.1441H125.78V23.8686H125.978C126.1 23.6802 126.27 23.4399 126.487 23.1477C126.708 22.8509 127.024 22.587 127.434 22.3562C127.848 22.1206 128.409 22.0028 129.116 22.0028C130.03 22.0028 130.836 22.2313 131.533 22.6883C132.23 23.1454 132.774 23.7932 133.165 24.6319C133.557 25.4706 133.752 26.4601 133.752 27.6003C133.752 28.75 133.557 29.7465 133.165 30.5899C132.774 31.4286 132.233 32.0789 131.54 32.5406C130.847 32.9976 130.049 33.2262 129.144 33.2262C128.447 33.2262 127.888 33.1107 127.469 32.8799C127.05 32.6443 126.727 32.378 126.501 32.0812C126.275 31.7797 126.1 31.5299 125.978 31.332H125.836V37.071H124.168ZM125.808 27.5721C125.808 28.3919 125.928 29.1152 126.169 29.7418C126.409 30.3638 126.76 30.8514 127.222 31.2048C127.683 31.5535 128.249 31.7278 128.918 31.7278C129.615 31.7278 130.197 31.5441 130.664 31.1766C131.135 30.8043 131.488 30.3049 131.724 29.6782C131.964 29.0468 132.084 28.3448 132.084 27.5721C132.084 26.8088 131.966 26.1208 131.731 25.5083C131.5 24.8911 131.149 24.4034 130.678 24.0453C130.211 23.6825 129.625 23.5011 128.918 23.5011C128.239 23.5011 127.669 23.6731 127.207 24.017C126.746 24.3563 126.397 24.8322 126.161 25.4447C125.926 26.0525 125.808 26.7616 125.808 27.5721Z" fill="white"/>
<path d="M21.001 16C26.524 16 31.001 20.477 31.001 26C31.001 31.523 26.524 36 21.001 36C19.2337 36.003 17.4976 35.5353 15.971 34.645L11.005 36L12.357 31.032C11.466 29.5049 10.9979 27.768 11.001 26C11.001 20.477 15.478 16 21.001 16ZM17.593 21.3L17.393 21.308C17.2637 21.3169 17.1373 21.3509 17.021 21.408C16.9126 21.4695 16.8136 21.5463 16.727 21.636C16.607 21.749 16.539 21.847 16.466 21.942C16.0961 22.4229 15.897 23.0133 15.9 23.62C15.902 24.11 16.03 24.587 16.23 25.033C16.639 25.935 17.312 26.89 18.2 27.775C18.414 27.988 18.624 28.202 18.85 28.401C19.9534 29.3724 21.2683 30.073 22.69 30.447L23.258 30.534C23.443 30.544 23.628 30.53 23.814 30.521C24.1052 30.5056 24.3895 30.4268 24.647 30.29C24.7778 30.2223 24.9056 30.1489 25.03 30.07C25.03 30.07 25.0723 30.0413 25.155 29.98C25.29 29.88 25.373 29.809 25.485 29.692C25.569 29.6053 25.639 29.5047 25.695 29.39C25.773 29.227 25.851 28.916 25.883 28.657C25.907 28.459 25.9 28.351 25.897 28.284C25.893 28.177 25.804 28.066 25.707 28.019L25.125 27.758C25.125 27.758 24.255 27.379 23.723 27.137C23.6673 27.1128 23.6077 27.0989 23.547 27.096C23.4786 27.0888 23.4094 27.0965 23.3442 27.1184C23.279 27.1403 23.2192 27.176 23.169 27.223C23.164 27.221 23.097 27.278 22.374 28.154C22.3325 28.2098 22.2753 28.2519 22.2098 28.2751C22.1443 28.2982 22.0733 28.3013 22.006 28.284C21.9408 28.2666 21.877 28.2446 21.815 28.218C21.691 28.166 21.648 28.146 21.563 28.11C20.9889 27.8599 20.4574 27.5215 19.988 27.107C19.862 26.997 19.745 26.877 19.625 26.761C19.2316 26.3842 18.8887 25.958 18.605 25.493L18.546 25.398C18.5043 25.3338 18.47 25.265 18.444 25.193C18.406 25.046 18.505 24.928 18.505 24.928C18.505 24.928 18.748 24.662 18.861 24.518C18.971 24.378 19.064 24.242 19.124 24.145C19.242 23.955 19.279 23.76 19.217 23.609C18.937 22.925 18.6477 22.2447 18.349 21.568C18.29 21.434 18.115 21.338 17.956 21.319C17.902 21.3123 17.848 21.307 17.794 21.303C17.6597 21.2953 17.5251 21.2966 17.391 21.307L17.593 21.3Z" fill="white"/>
<defs>
<linearGradient id="paint0_linear_73_19" x1="77" y1="0" x2="77" y2="53" gradientUnits="userSpaceOnUse">
<stop stop-color="#4A4444"/>
<stop offset="1" stop-color="#181818"/>
</linearGradient>
</defs>
</svg>
